<?xml version="1.0" encoding="utf-8"?>
<!-- Generator: Adobe Illustrator 27.5.0, SVG Export Plug-In . SVG Version: 6.00 Build 0)  -->
<svg version="1.1" xmlns="http://www.w3.org/2000/svg" xmlns:xlink="http://www.w3.org/1999/xlink" x="0px" y="0px"
	 viewBox="0 0 3710 3710" style="enable-background:new 0 0 3710 3710;" xml:space="preserve">
<g id="Background">
	<g>
		<g>
			<rect fill-opacity="0" width="3710" height="3710"/>
		</g>
	</g>
</g>
<g id="Illustration">
	<g>
		<linearGradient id="SVGID_1_" gradientUnits="userSpaceOnUse" x1="3332.6057" y1="3207.7" x2="1312.7798" y2="1440.3536">
			<stop  offset="0" style="stop-color:#DAE3FE"/>
			<stop  offset="1" style="stop-color:#E9EFFD"/>
		</linearGradient>
		<path style="fill:url(#SVGID_1_);" d="M2989.34,2289.838c-261.043,614.651-956.401,958.982-1559.416,866.1
			c-98.123-15.114-367.129-60.135-605.297-272.532c-458.489-408.879-556.541-1218.513-186.691-1789.082
			c269.185-415.274,751.728-650.678,1210.238-638.903c98.763,2.536,477.265,18.168,809.901,292.453
			c48.858,40.287,156.618,136.021,253.737,287.895C3139.863,1392.399,3159.465,1889.262,2989.34,2289.838z"/>
		<g>
			<g>
				<path style="fill:#91B3FA;" d="M1268.162,3113.727c0,0-185.139,204.11-339.76,117.846
					c-124.267-69.33,52.283-51.213,202.04-83.971c11.753-2.571,8.675-20.137-3.25-18.556
					c-117.171,15.535-295.958,28.232-327.012-32.863c-46.879-92.23-1.418-62.318,141.258-48.996
					c142.676,13.323,170.166-21.907,77.035-43.85c-93.131-21.942-241.285,26.59-275.797-18.539
					c-34.512-45.129-53.377-134.712-67.133-173.238s177.601-96.333,229.335-45.758c51.734,50.576,93.744,163.464,155.138,184.075
					c61.394,20.611-4.647-79.248-45.365-130.79s-56.859-89.848,24.49-77.554c81.35,12.294,124.352,111.578,132.927,185.689
					c8.576,74.111,37.228,115.562,35.931,78.897c-1.297-36.665-14.602-149.105-40.604-182.912
					C1141.394,2789.402,1327.004,2830.657,1268.162,3113.727z"/>
				
					<linearGradient id="SVGID_00000062170950606197016390000017843764456343103137_" gradientUnits="userSpaceOnUse" x1="820.9364" y1="2992.6384" x2="1254.6609" y2="2992.6384">
					<stop  offset="0" style="stop-color:#DAE3FE"/>
					<stop  offset="1" style="stop-color:#E9EFFD"/>
				</linearGradient>
				<path style="fill:url(#SVGID_00000062170950606197016390000017843764456343103137_);" d="M1253.094,3115.673
					c-0.814,0.31-1.768,0.174-2.47-0.444c-158.91-139.023-425.436-240.071-428.109-241.074c-1.259-0.473-1.895-1.874-1.423-3.136
					c0.471-1.252,1.875-1.893,3.134-1.42c2.682,1.005,270.02,102.354,429.605,241.97c1.01,0.882,1.112,2.42,0.228,3.432
					C1253.787,3115.314,1253.454,3115.537,1253.094,3115.673z"/>
			</g>
			<g>
				<path style="fill:#BDD0FB;" d="M1379.935,3244.087c0,0-338.108,11.156-394.151-198.854
					c-45.041-168.781,89.815,2.34,246.632,106.381c12.307,8.165,25.165-9.555,13.582-18.718
					c-113.795-90.026-277.727-236.798-250.395-316.368c41.261-120.121,53.728-54.489,163.871,82.675s164.686,131.302,104.469,30.453
					c-60.218-100.849-229.572-189.999-219.27-258.979c10.302-68.98,73.161-162.142,95.374-207.182
					c22.212-45.041,236.652,74.274,236.261,163.089c-0.391,88.815-64.023,222.292-29.745,294.025
					c34.279,71.733,65.895-71.798,76.548-151.728c10.654-79.929,30.635-126.884,89.294-44.664
					c58.659,82.219,7.867,204.949-50.143,275.822c-58.009,70.873-70.075,131.546-38.859,99.079
					c31.215-32.467,118.975-140.255,126.566-192.058C1557.56,2855.257,1679.757,3054.135,1379.935,3244.087z"/>
				
					<linearGradient id="SVGID_00000087394786885504902460000003164240437833521563_" gradientUnits="userSpaceOnUse" x1="1210.1729" y1="2937.5535" x2="1369.5969" y2="2937.5535">
					<stop  offset="0" style="stop-color:#DAE3FE"/>
					<stop  offset="1" style="stop-color:#E9EFFD"/>
				</linearGradient>
				<path style="fill:url(#SVGID_00000087394786885504902460000003164240437833521563_);" d="M1365.346,3232.467
					c-0.968-0.454-1.662-1.41-1.718-2.558c-13.195-258.862-151.806-580.156-153.205-583.37c-0.659-1.514,0.034-3.271,1.549-3.933
					c1.506-0.655,3.271,0.037,3.93,1.55c1.405,3.223,140.444,325.49,153.692,585.454c0.085,1.644-1.182,3.048-2.83,3.133
					C1366.255,3232.77,1365.774,3232.667,1365.346,3232.467z"/>
			</g>
		</g>
		<g>
			<path style="fill:#91B3FA;" d="M2891.765,2215.291l-2364.741-64.502c-49.727-1.356-89.334-42.059-89.334-91.804v-982.059
				c0-49.613,40.593-89.633,90.201-88.927l2337.969,33.277c65.507,0.932,118.121,54.301,118.121,119.814v984.467
				C2983.98,2176.093,2942.282,2216.669,2891.765,2215.291z"/>
			<path style="opacity:0.14;fill:#FFFFFF;" d="M2835.471,2152.696l-2251.845-58.287c-47.353-1.226-85.069-38.006-85.069-82.959
				v-887.435c0-44.833,38.655-80.996,85.895-80.358l2226.351,30.07c62.379,0.843,112.481,49.069,112.481,108.27v889.611
				C2923.284,2117.274,2883.576,2153.941,2835.471,2152.696z"/>
			<path style="fill:#91B3FA;" d="M761.556,2145.914l151.528,268.937c10.25,18.193,37.176,15.766,44.008-3.966l91.749-264.971
				H761.556z"/>
			<g>
				<path style="fill:#FFFFFF;" d="M1689.054,1063.671c-0.023,0-0.047,0-0.07,0l-283.907-3.835c-2.813-0.04-5.063-2.352-5.026-5.165
					c0.036-2.813,2.316-4.933,5.165-5.026l283.908,3.835c2.813,0.04,5.063,2.352,5.026,5.165
					C1694.113,1061.435,1691.837,1063.671,1689.054,1063.671z"/>
			</g>
			<g>
				<path style="fill:#FFFFFF;" d="M2697.176,1487.413l-1968.384-43.561c-6.747-0.149-12.145-5.792-11.996-12.539l1.915-86.531
					c0.149-6.747,5.792-12.145,12.539-11.996l1968.384,43.561c6.747,0.149,12.145,5.792,11.996,12.539l-1.915,86.531
					C2709.566,1482.165,2703.923,1487.563,2697.176,1487.413z"/>
				<path style="fill:#FFFFFF;" d="M2689.002,1856.795l-1968.384-43.561c-6.747-0.149-12.145-5.792-11.996-12.539l1.915-86.532
					c0.149-6.747,5.792-12.145,12.539-11.996l1968.384,43.561c6.747,0.149,12.145,5.792,11.996,12.539l-1.915,86.531
					C2701.391,1851.546,2695.749,1856.944,2689.002,1856.795z"/>
				<path style="fill:#FFFFFF;" d="M1442.883,1648.208l-722.046-15.979c-4.666-0.103-8.399-4.005-8.295-8.671l2.082-94.099
					c0.103-4.666,4.005-8.399,8.671-8.295l722.046,15.979c4.666,0.103,8.399,4.005,8.295,8.671l-2.082,94.099
					C1451.451,1644.578,1447.549,1648.311,1442.883,1648.208z"/>
				<path style="fill:#FFFFFF;" d="M2696.79,1675.957l-1169.632-25.885c-4.666-0.103-8.399-4.005-8.296-8.671l2.083-94.099
					c0.103-4.666,4.005-8.399,8.671-8.296l1169.632,25.885c4.666,0.103,8.399,4.005,8.295,8.671l-2.083,94.099
					C2705.357,1672.327,2701.455,1676.06,2696.79,1675.957z"/>
			</g>
		</g>
		<g>
			<g>
				
					<linearGradient id="SVGID_00000054233789592238555290000001297895480782930838_" gradientUnits="userSpaceOnUse" x1="3119.1638" y1="-330.3334" x2="1685.5815" y2="1490.5221" gradientTransform="matrix(0.9998 0.0199 -0.0199 0.9998 99.0109 27.048)">
					<stop  offset="0" style="stop-color:#FE7062"/>
					<stop  offset="1" style="stop-color:#FF928E"/>
				</linearGradient>
				<path style="fill:url(#SVGID_00000054233789592238555290000001297895480782930838_);" d="M1219.696,1503.772l1927.406-14.252
					c40.531-0.3,73.455-32.815,74.26-73.339l15.903-800.003c0.803-40.416-31.617-73.674-72.04-73.902l-1905.092-10.751
					c-53.378-0.301-97.103,42.322-98.164,95.69l-15.942,801.965C1145.21,1470.348,1178.521,1504.077,1219.696,1503.772z"/>
				
					<linearGradient id="SVGID_00000000924401659312742720000007633391840978231727_" gradientUnits="userSpaceOnUse" x1="3499.3118" y1="-31.0255" x2="2065.7493" y2="1789.8052" gradientTransform="matrix(0.9998 0.0199 -0.0199 0.9998 99.0109 27.048)">
					<stop  offset="0" style="stop-color:#FE7062"/>
					<stop  offset="1" style="stop-color:#FF928E"/>
				</linearGradient>
				<path style="fill:url(#SVGID_00000000924401659312742720000007633391840978231727_);" d="M2531.573,1480.792l-127.792,216.627
					c-8.645,14.654-30.539,12.241-35.786-3.944l-70.449-217.336L2531.573,1480.792z"/>
				<g style="opacity:0.63;">
					<path style="fill:#FFFFFF;" d="M1761.895,1455.814c-2.8,0-5.079-2.262-5.096-5.066c-0.016-2.813,2.249-5.109,5.066-5.125
						l155.346-0.932c0.01,0,0.02,0,0.03,0c2.8,0,5.079,2.263,5.096,5.066c0.017,2.813-2.249,5.109-5.066,5.125l-155.346,0.932
						C1761.915,1455.814,1761.905,1455.814,1761.895,1455.814z"/>
				</g>
				<g style="opacity:0.63;">
					<path style="fill:#FFFFFF;" d="M1266.132,1458.789c-20.595,0.003-40.466-8.188-54.592-22.509
						c-13.456-13.645-20.661-31.463-20.29-50.17c0.056-2.813,2.375-5.029,5.198-4.993c2.813,0.056,5.049,2.382,4.993,5.198
						c-0.319,15.934,5.845,31.138,17.357,42.808c12.218,12.391,29.449,19.473,47.33,19.473c0.136,0,0.272,0,0.408,0l440.578-2.647
						c0.01,0,0.02,0,0.03,0c2.8,0,5.079,2.262,5.096,5.066c0.017,2.813-2.249,5.109-5.066,5.125l-440.578,2.647
						C1266.444,1458.789,1266.285,1458.789,1266.132,1458.789z"/>
				</g>
				<g style="opacity:0.63;">
					<path style="fill:#FFFFFF;" d="M1197.862,1315.21c-0.036,0-0.07,0-0.106,0c-2.813-0.056-5.049-2.382-4.993-5.198l4.236-213.017
						c0.056-2.777,2.325-4.993,5.092-4.993c0.036,0,0.07,0,0.106,0c2.813,0.056,5.049,2.382,4.993,5.198l-4.236,213.017
						C1202.898,1312.994,1200.629,1315.21,1197.862,1315.21z"/>
				</g>
				<g style="opacity:0.63;">
					<path style="fill:#FFFFFF;" d="M2449.517,587.534c-0.01,0-0.02,0-0.033,0l-231.339-1.473c-2.813-0.017-5.079-2.312-5.062-5.129
						c0.016-2.803,2.296-5.062,5.095-5.062c0.01,0,0.02,0,0.033,0l231.339,1.473c2.813,0.017,5.079,2.312,5.063,5.129
						C2454.596,585.274,2452.317,587.534,2449.517,587.534z"/>
				</g>
				<g style="opacity:0.63;">
					<path style="fill:#FFFFFF;" d="M3182.607,875.701c-0.036,0-0.07,0-0.106,0c-2.813-0.056-5.049-2.382-4.993-5.198l4.316-217.054
						c0.312-15.635-5.696-30.587-16.916-42.105c-11.996-12.311-29.014-19.437-46.693-19.546l-502.033-3.198
						c-2.813-0.017-5.079-2.312-5.062-5.129c0.017-2.803,2.296-5.063,5.095-5.063c0.01,0,0.02,0,0.033,0l502.033,3.198
						c20.385,0.129,40.042,8.376,53.925,22.628c13.137,13.482,20.17,31.035,19.808,49.417l-4.316,217.057
						C3187.643,873.485,3185.374,875.701,3182.607,875.701z"/>
				</g>
			</g>
			<g>
				<path style="fill:#FFFFFF;" d="M2969.355,866.338H1395.018c-6.984,0-12.699-5.715-12.699-12.699v-89.578
					c0-6.984,5.715-12.699,12.699-12.699h1574.337c6.985,0,12.699,5.715,12.699,12.699v89.578
					C2982.054,860.623,2976.34,866.338,2969.355,866.338z"/>
				<path style="fill:#FFFFFF;" d="M2969.355,1248.723H1395.018c-6.984,0-12.699-5.714-12.699-12.699v-89.578
					c0-6.984,5.715-12.699,12.699-12.699h1574.337c6.985,0,12.699,5.714,12.699,12.699v89.578
					C2982.054,1243.009,2976.34,1248.723,2969.355,1248.723z"/>
				<path style="fill:#FFFFFF;" d="M2138.566,1061.433h-747.465c-4.83,0-8.782-3.952-8.782-8.782v-97.412
					c0-4.83,3.952-8.782,8.782-8.782h747.465c4.83,0,8.782,3.952,8.782,8.782v97.412
					C2147.348,1057.481,2143.396,1061.433,2138.566,1061.433z"/>
				<path style="fill:#FFFFFF;" d="M2973.272,1061.433h-747.465c-4.83,0-8.782-3.952-8.782-8.782v-97.412
					c0-4.83,3.952-8.782,8.782-8.782h747.465c4.83,0,8.782,3.952,8.782,8.782v97.412
					C2982.054,1057.481,2978.103,1061.433,2973.272,1061.433z"/>
			</g>
		</g>
		<g>
			
				<linearGradient id="SVGID_00000026148734763084556840000006078025158761000339_" gradientUnits="userSpaceOnUse" x1="-2108.3704" y1="2331.7383" x2="-1940.5272" y2="2331.7383" gradientTransform="matrix(-1 0 0 1 1033.1541 0)">
				<stop  offset="0" style="stop-color:#FEBBBA"/>
				<stop  offset="1" style="stop-color:#FF928E"/>
			</linearGradient>
			<path style="fill:url(#SVGID_00000026148734763084556840000006078025158761000339_);" d="M3081.113,2245.235
				c17.219,18.378,42.571,34.26,60.412,44.163c-26.643,32.932-62.694,65.912-110.42,98.192l-13.659,30.651l-43.764-52.452
				C2973.681,2365.79,3052.21,2326.71,3081.113,2245.235z"/>
			
				<linearGradient id="SVGID_00000152972602927563314090000008456689512505592201_" gradientUnits="userSpaceOnUse" x1="-1880.0668" y1="2857.8608" x2="-1875.8571" y2="3320.8989" gradientTransform="matrix(-1 0 0 1 1033.1541 0)">
				<stop  offset="0" style="stop-color:#4F52FF"/>
				<stop  offset="1" style="stop-color:#4042E2"/>
			</linearGradient>
			<path style="fill:url(#SVGID_00000152972602927563314090000008456689512505592201_);" d="M2846.906,3240.067
				c-0.015-0.937,0.047-1.886,0.288-2.843c14.176-56.198,84.53-91.202,84.53-91.202l27.879,2.185
				c16.03,49.532,13.969,79.911,11.396,93.442c-0.071,0.379-0.186,0.74-0.287,1.107
				C2947.714,3244.811,2900.379,3246.154,2846.906,3240.067z"/>
			
				<linearGradient id="SVGID_00000165222780398637007460000013859741763966410648_" gradientUnits="userSpaceOnUse" x1="-1624.5315" y1="3046.7803" x2="-2082.4004" y2="3406.3" gradientTransform="matrix(-1 0 0 1 1033.1541 0)">
				<stop  offset="0" style="stop-color:#09005D"/>
				<stop  offset="1" style="stop-color:#1A0F91"/>
			</linearGradient>
			<path style="fill:url(#SVGID_00000165222780398637007460000013859741763966410648_);" d="M2970.712,3242.757
				c-1.241,4.518-4.577,8.037-8.847,8.935c-32.715,6.88-84.711,1.343-106.542-1.511c-4.817-0.63-8.337-5.084-8.417-10.113
				C2900.379,3246.154,2947.714,3244.811,2970.712,3242.757z"/>
			
				<linearGradient id="SVGID_00000116200270882236663090000015187865300099225527_" gradientUnits="userSpaceOnUse" x1="-1904.6068" y1="3051.9722" x2="-1928.6477" y2="3261.7847" gradientTransform="matrix(-1 0 0 1 1033.1541 0)">
				<stop  offset="0" style="stop-color:#FEBBBA"/>
				<stop  offset="1" style="stop-color:#FF928E"/>
			</linearGradient>
			<path style="fill:url(#SVGID_00000116200270882236663090000015187865300099225527_);" d="M2970.814,3106.683l-11.808,56.843
				c-0.865,4.164-4.066,7.284-7.942,7.648c-4.745,0.446-11.5,0.707-18.293-0.292c-6.092-0.895-10.333-7.085-9.253-13.728
				l8.208-50.471H2970.814z"/>
			
				<linearGradient id="SVGID_00000094617865051368135450000011730201769638973834_" gradientUnits="userSpaceOnUse" x1="-1543.1951" y1="3150.3682" x2="-2001.0627" y2="3509.887" gradientTransform="matrix(-1 0 0 1 1033.1541 0)">
				<stop  offset="0" style="stop-color:#09005D"/>
				<stop  offset="1" style="stop-color:#1A0F91"/>
			</linearGradient>
			<path style="fill:url(#SVGID_00000094617865051368135450000011730201769638973834_);" d="M2726.166,3242.186
				c30.79-0.863,46.716-4.488,54.949-7.854c0.02,3.061,0.002,6.177-0.097,9.406c-0.106,3.447-2.66,6.201-5.802,6.181l-169.059-1.092
				c-5.395-0.036-8.548-6.292-6.209-11.239C2622.114,3239.421,2678.569,3243.518,2726.166,3242.186z"/>
			
				<linearGradient id="SVGID_00000067946597987649347510000003275695530997070490_" gradientUnits="userSpaceOnUse" x1="-1660.8323" y1="2855.8677" x2="-1656.6226" y2="3318.9053" gradientTransform="matrix(-1 0 0 1 1033.1541 0)">
				<stop  offset="0" style="stop-color:#4F52FF"/>
				<stop  offset="1" style="stop-color:#4042E2"/>
			</linearGradient>
			<path style="fill:url(#SVGID_00000067946597987649347510000003275695530997070490_);" d="M2599.947,3237.59
				c0.204-0.431,0.379-0.869,0.669-1.275c14.929-20.862,52.957-62.403,128.098-80.42l36.047-1.139c0,0,16.051,27.899,16.354,79.576
				c-8.233,3.366-24.159,6.991-54.949,7.854C2678.569,3243.518,2622.114,3239.421,2599.947,3237.59z"/>
			
				<linearGradient id="SVGID_00000109714444716459979490000007288702909169992855_" gradientUnits="userSpaceOnUse" x1="-1708.7775" y1="3074.4119" x2="-1732.818" y2="3284.2217" gradientTransform="matrix(-1 0 0 1 1033.1541 0)">
				<stop  offset="0" style="stop-color:#FEBBBA"/>
				<stop  offset="1" style="stop-color:#FF928E"/>
			</linearGradient>
			<path style="fill:url(#SVGID_00000109714444716459979490000007288702909169992855_);" d="M2771.445,3100.126
				c-0.4,2.687-5.341,43.525-7.254,59.359c-0.454,3.762-3.18,6.675-6.615,7.084c-6.138,0.734-16.071,1.401-24.761-0.38
				c-4.688-0.962-8.082-5.465-8.082-10.701v-64.103L2771.445,3100.126z"/>
			
				<linearGradient id="SVGID_00000068677675554318508080000017285250519889508523_" gradientUnits="userSpaceOnUse" x1="2656.6589" y1="2990.9768" x2="3416.9185" y2="2146.2437">
				<stop  offset="0" style="stop-color:#09005D"/>
				<stop  offset="1" style="stop-color:#1A0F91"/>
			</linearGradient>
			<path style="fill:url(#SVGID_00000068677675554318508080000017285250519889508523_);" d="M2800.365,2354.862
				c0,0-86.942,330.415-85.371,746.21c0.029,7.581,5.351,14.123,12.769,15.686c10.931,2.302,27.001,5.036,40.304,4.663
				c7.101-0.199,13.038-5.465,14.233-12.469c12.191-71.492,82.151-474.236,122.01-539.621c0,0,26.225,358.703,17.843,544.801
				c-0.208,4.628,3.181,8.64,7.781,9.173c6.98,0.807,18.146,1.42,32.358-0.09c5.394-0.573,9.746-4.651,10.516-10.02
				c8.684-60.506,58.663-420.653,56.539-680.089c-0.12-14.63-38.692-78.244-38.692-78.244H2800.365z"/>
			
				<linearGradient id="SVGID_00000117640525676362079090000010833075203667013564_" gradientUnits="userSpaceOnUse" x1="-7163.2485" y1="-1562.371" x2="-8134.6885" y2="-2350.7869" gradientTransform="matrix(-1 0 0 1 265.3855 0)">
				<stop  offset="0" style="stop-color:#4F52FF"/>
				<stop  offset="1" style="stop-color:#4042E2"/>
			</linearGradient>
			<path style="fill:url(#SVGID_00000117640525676362079090000010833075203667013564_);" d="M2679.448,1954.978
				c14.111-17.687,26.473-36.647,36.813-56.182c14.442-27.285,1.162,17.663,5.107-13.148
				c108.148-78.043,270.999-38.541,333.991-30.606c20.655,2.602,39.545,12.785,53.156,28.537
				c53.979,62.466,172.427,233.488,33.01,405.819c-17.84-9.903-43.193-25.785-60.412-44.163
				c15.424-43.48,16.687-99.045-15.638-167.18c-1.105,5.401-2.47,10.748-4.129,16.01c-44.553,141.147-46.93,258.604-46.831,285.675
				c0.014,3.675-2.193,6.984-5.606,8.353c-58.637,23.496-171.51,9.511-209.4,3.866c-6.947-1.036-11.621-7.504-10.661-14.461
				c18.596-134.723-76.841-356.349-102.047-411.859C2684.988,1961.644,2682.48,1958.049,2679.448,1954.978z"/>
			
				<linearGradient id="SVGID_00000031187578236557068240000011684249382731419792_" gradientUnits="userSpaceOnUse" x1="-1851.4962" y1="1710.7102" x2="-1943.2885" y2="2107.3833" gradientTransform="matrix(-1 0 0 1 1033.1541 0)">
				<stop  offset="0" style="stop-color:#FEBBBA"/>
				<stop  offset="1" style="stop-color:#FF928E"/>
			</linearGradient>
			<path style="fill:url(#SVGID_00000031187578236557068240000011684249382731419792_);" d="M2954.01,1741.599l11.301,115.46
				c0,0-64.952,19.564-112.194-13.769l33.209-104.936L2954.01,1741.599z"/>
			<g>
				
					<linearGradient id="SVGID_00000001652718110893430290000000682096355569475233_" gradientUnits="userSpaceOnUse" x1="-2435.1006" y1="-2127.0278" x2="-2597.9519" y2="-1911.5889" gradientTransform="matrix(-0.6854 -0.7281 -0.7281 0.6854 -317.845 1318.7853)">
					<stop  offset="0" style="stop-color:#FEBBBA"/>
					<stop  offset="1" style="stop-color:#FF928E"/>
				</linearGradient>
				<path style="fill:url(#SVGID_00000001652718110893430290000000682096355569475233_);" d="M2878.644,1610.003
					c-1.563,1.471-65.975,127.963-65.975,127.963l73.005,35.243l78.861-110.817
					C2964.535,1662.391,2904.814,1585.367,2878.644,1610.003z"/>
				
					<linearGradient id="SVGID_00000036237093311181004780000012253637257127950756_" gradientUnits="userSpaceOnUse" x1="-2559.4727" y1="-2075.2903" x2="-2364.9448" y2="-2075.2903" gradientTransform="matrix(-0.6854 -0.7281 -0.7281 0.6854 -317.845 1318.7853)">
					<stop  offset="0" style="stop-color:#09005D"/>
					<stop  offset="1" style="stop-color:#1A0F91"/>
				</linearGradient>
				<path style="fill:url(#SVGID_00000036237093311181004780000012253637257127950756_);" d="M2932.234,1665.46
					c1.302,3.37,0.981,7.13-0.877,10.228l-36.411,60.697c-0.553,0.92-1.211,1.753-1.997,2.485
					c-4.334,4.035-19.165,15.769-30.629-0.208c-9.772-13.616-18.94-25.996-28.765-31.102c-5.736-2.982-12.797-0.601-15.71,5.172
					c-5.998,11.891-17.619,36.128-24.919,59.111c-1.829,5.761,1.144,11.945,6.746,14.215c14.782,5.99,43.999,16.821,69.926,20.399
					c4.259,0.589,8.476-1.209,11.01-4.682c11.154-15.28,42.592-57.984,53.323-68.673c9.969-9.931,28.367-6.186,36.657-3.804
					c3.147,0.905,6.497,0.469,9.302-1.221c8.412-5.066,23.09-17.682,9.662-39.042c-3.339-5.311-1.637-12.385,3.605-15.833
					c9.39-6.178,19.581-17.772,9.872-36.55c-9.828-19.009-27.379-20.715-39.333-19.254c-5.289,0.646-10.659-2.127-12.688-7.054
					c-0.902-2.192-2.686-4.06-6.009-4.733c-6.265-1.271-10.377-7-9.147-13.273c2.108-10.758,0.521-24.732-16.654-34.174
					c-31.5-17.319-59.093,10.901-66.108,34.722c-7.017,23.823,28.202,40.658,50.357,43.467
					C2919.721,1638.416,2928.644,1656.177,2932.234,1665.46z"/>
				
					<linearGradient id="SVGID_00000116921675709446169440000016499537092657865609_" gradientUnits="userSpaceOnUse" x1="-2673.6125" y1="-1956.418" x2="-2542.9937" y2="-2090.4294" gradientTransform="matrix(-0.6854 -0.7281 -0.7281 0.6854 -317.845 1318.7853)">
					<stop  offset="0" style="stop-color:#FEBBBA"/>
					<stop  offset="1" style="stop-color:#FF928E"/>
				</linearGradient>
				<path style="fill:url(#SVGID_00000116921675709446169440000016499537092657865609_);" d="M2920.256,1755.392
					c0,0,14.007-40.984,31.936-39.48c17.93,1.505,32.042,19.366,9.821,39.445
					C2934.373,1780.333,2920.256,1755.392,2920.256,1755.392z"/>
			</g>
			
				<linearGradient id="SVGID_00000129905208856911075740000011425958312427619232_" gradientUnits="userSpaceOnUse" x1="4012.219" y1="989.2457" x2="3167.489" y2="1897.3297">
				<stop  offset="0" style="stop-color:#4F52FF"/>
				<stop  offset="1" style="stop-color:#4042E2"/>
			</linearGradient>
			<path style="fill:url(#SVGID_00000129905208856911075740000011425958312427619232_);" d="M3071.388,2067.498
				c23.633-64.677,15.06-142.777,14.969-143.558l-6.511,0.743c0.086,0.767,8.478,77.369-14.618,140.563L3071.388,2067.498z"/>
			
				<linearGradient id="SVGID_00000034811944232646148740000011997472585039057553_" gradientUnits="userSpaceOnUse" x1="2937.0522" y1="2520.7603" x2="2673.0737" y2="1704.1879">
				<stop  offset="0" style="stop-color:#09005D"/>
				<stop  offset="1" style="stop-color:#1A0F91"/>
			</linearGradient>
			<path style="fill:url(#SVGID_00000034811944232646148740000011997472585039057553_);" d="M2907.505,2560.908
				c1.457,0,2.789-0.978,3.17-2.455c7.21-27.808,61.199-58.367,61.743-58.673c1.578-0.885,2.142-2.883,1.254-4.463
				c-0.886-1.578-2.874-2.144-4.462-1.255c-2.321,1.302-56.973,32.238-64.881,62.746c-0.454,1.752,0.599,3.542,2.35,3.995
				C2906.955,2560.875,2907.234,2560.908,2907.505,2560.908z"/>
			<g>
				
					<linearGradient id="SVGID_00000116196952907639644040000012631836970165405058_" gradientUnits="userSpaceOnUse" x1="-6997.7031" y1="-1766.3566" x2="-7969.1436" y2="-2554.7727" gradientTransform="matrix(-1 0 0 1 265.3855 0)">
					<stop  offset="0" style="stop-color:#4F52FF"/>
					<stop  offset="1" style="stop-color:#4042E2"/>
				</linearGradient>
				<path style="fill:url(#SVGID_00000116196952907639644040000012631836970165405058_);" d="M2459.923,1991.29
					c122.316,18.353,202.039-58.825,261.445-105.642c78.433-61.811,139.467-31.74,139.467-31.74l-83.644,159.636
					c-124.911,117.773-252.982,91.619-333.723,53.454C2442.226,2036.164,2450.466,2010.36,2459.923,1991.29z"/>
				
					<linearGradient id="SVGID_00000123441543753478449650000003922393250740450962_" gradientUnits="userSpaceOnUse" x1="-1898.3475" y1="1701.0187" x2="-2460.064" y2="2419.6855" gradientTransform="matrix(-1 0 0 1 265.3855 0)">
					<stop  offset="0" style="stop-color:#FEBBBA"/>
					<stop  offset="1" style="stop-color:#FF928E"/>
				</linearGradient>
				<path style="fill:url(#SVGID_00000123441543753478449650000003922393250740450962_);" d="M2288.008,1918.316l40.563,21.828
					c48.646,29.619,92.177,45.269,131.352,51.146c-9.458,19.07-17.697,44.874-16.455,75.707
					c-51.397-24.293-83.621-53.454-83.621-53.454C2267.958,1958.751,2288.008,1918.316,2288.008,1918.316z"/>
			</g>
			
				<linearGradient id="SVGID_00000140692692727004425880000007919246571277672875_" gradientUnits="userSpaceOnUse" x1="-1823.1716" y1="1759.7754" x2="-2384.8884" y2="2478.4429" gradientTransform="matrix(-1 0 0 1 265.3855 0)">
				<stop  offset="0" style="stop-color:#FEBBBA"/>
				<stop  offset="1" style="stop-color:#FF928E"/>
			</linearGradient>
			<path style="fill:url(#SVGID_00000140692692727004425880000007919246571277672875_);" d="M2168.511,1975.476
				c2.619-8.706,9.055-15.748,17.49-19.14l82.321-33.105c0,0,1.243-10.558-17.393-17.733c-18.637-7.174-14.279-28.046-14.279-28.046
				s25.46,11.614,62.735,30.035c21.315,10.534,33.276,29.135,39.619,43.136l-21.192,27.869
				c-50.737,15.242-102.076,18.156-153.854,12.111L2168.511,1975.476z"/>
		</g>
		<g>
			<g>
				
					<linearGradient id="SVGID_00000054226636259177309540000018194292032617119906_" gradientUnits="userSpaceOnUse" x1="70.268" y1="1807.2537" x2="-136.1354" y2="2060.9978" gradientTransform="matrix(-1 0 0 1 1938 0)">
					<stop  offset="0" style="stop-color:#FEBBBA"/>
					<stop  offset="1" style="stop-color:#FF928E"/>
				</linearGradient>
				<path style="fill:url(#SVGID_00000054226636259177309540000018194292032617119906_);" d="M1812.182,1943.855l51.096,162.042
					c0,0,59.295,43.694,134.906,1.99c11.619-6.365,23.634-14.726,35.813-25.628c91.765-81.897,30.881-201.041,30.881-201.041
					s70.037-28.254,38.919-87.708c-2.149-4.058-8.117-3.422-9.392,1.035c-4.535,16.395-15.599,45.047-38.761,55.235
					c-1.193,0.477-2.308,1.035-3.341,1.511c-1.035-3.102-1.035-6.763,1.432-10.666c7.245-10.983-5.809-26.025-5.809-26.025
					s-0.874,13.292-10.905,21.57c-8.673,7.242-12.812,23.16-6.924,36.292c12.575,48.711,31.357,113.097-41.785,160.214
					c-7.481,4.774-15.28,7.72-23.239,8.994C1895.195,2053.367,1812.182,1943.855,1812.182,1943.855z"/>
				
					<linearGradient id="SVGID_00000114036588591938433880000006866027625094271659_" gradientUnits="userSpaceOnUse" x1="2038.7966" y1="1651.9971" x2="1853.6566" y2="2170.05">
					<stop  offset="0" style="stop-color:#4F52FF"/>
					<stop  offset="1" style="stop-color:#4042E2"/>
				</linearGradient>
				<path style="fill:url(#SVGID_00000114036588591938433880000006866027625094271659_);" d="M1812.182,1943.855l51.096,162.042
					c0,0,59.295,43.694,134.906,1.99l-33.111-66.217C1895.195,2053.367,1812.182,1943.855,1812.182,1943.855z"/>
				
					<linearGradient id="SVGID_00000178190558744278691240000001704975231800236425_" gradientUnits="userSpaceOnUse" x1="1778.6235" y1="1672.0962" x2="1597.4464" y2="2093.3333">
					<stop  offset="0" style="stop-color:#09005D"/>
					<stop  offset="1" style="stop-color:#1A0F91"/>
				</linearGradient>
				<path style="fill:url(#SVGID_00000178190558744278691240000001704975231800236425_);" d="M1796.865,1745.12
					c0,0,28.929-100.766-79.32-73.053c0,0-53.035-7.39-54.549,42.539c0,0-22.922,34.549-23.889,77.119
					c0,0-104.222,26.943-120.666,68.702c-16.831,42.744-7.493,110.637,35.299,122.351c0,0-34.02,18.097-16.807,56.743
					c17.214,38.648,100.389,64.221,148.022,15.608c0,0,139.148,15.07,134.066-82.847c0,0,63.539-43.181-6.131-122.563
					C1743.22,1770.34,1796.865,1745.12,1796.865,1745.12z"/>
				
					<linearGradient id="SVGID_00000168835196542364093940000011347057922381160365_" gradientUnits="userSpaceOnUse" x1="1820.3223" y1="2014.2914" x2="1500.9974" y2="2496.6765">
					<stop  offset="0" style="stop-color:#4F52FF"/>
					<stop  offset="1" style="stop-color:#4042E2"/>
				</linearGradient>
				<path style="fill:url(#SVGID_00000168835196542364093940000011347057922381160365_);" d="M1805.336,1926.027
					c-21.878-6.558-85.576-18.668-146.167,37.246c-10.277,9.484-14.476,23.892-10.811,37.386
					c16.274,59.913,59.212,236.923,21.563,313.512c0,0,66.345,73.137,138.726,14.19c0,0,32.475-141.538,75.011-203.673
					c29.367-42.897-46.827-161.088-66.105-189.641C1814.634,1930.724,1810.332,1927.526,1805.336,1926.027z"/>
				
					<linearGradient id="SVGID_00000037692292325829024780000008587600692910173314_" gradientUnits="userSpaceOnUse" x1="-14823.9688" y1="5549.2549" x2="-14806.458" y2="5424.9307" gradientTransform="matrix(-0.9602 0.2794 0.2794 0.9602 -13988.0361 797.6744)">
					<stop  offset="0" style="stop-color:#FEBBBA"/>
					<stop  offset="1" style="stop-color:#FF928E"/>
				</linearGradient>
				<path style="fill:url(#SVGID_00000037692292325829024780000008587600692910173314_);" d="M1744.929,1806.997
					c0,0-32.354,91.518-34.787,131.892c0,0,35.759,16.261,69.454-11.185c0,0,3.536-91.412,8.644-107.78L1744.929,1806.997z"/>
				
					<linearGradient id="SVGID_00000119817300835573700630000014791602806061345679_" gradientUnits="userSpaceOnUse" x1="-15087.1221" y1="5624.6484" x2="-14923.4023" y2="5812.8828" gradientTransform="matrix(-0.9534 0.3019 0.3019 0.9534 -14275.5928 932.4522)">
					<stop  offset="0" style="stop-color:#FEBBBA"/>
					<stop  offset="1" style="stop-color:#FF928E"/>
				</linearGradient>
				<path style="fill:url(#SVGID_00000119817300835573700630000014791602806061345679_);" d="M1796.812,1716.592
					c0,0,87.388,116.407,37.624,151.986c-49.764,35.58-111.97-47.143-111.97-47.143s-21.155-64.341-1.145-86.807
					C1741.33,1712.161,1796.812,1716.592,1796.812,1716.592z"/>
				
					<linearGradient id="SVGID_00000016047211306814804050000002616027013675492754_" gradientUnits="userSpaceOnUse" x1="1768.7991" y1="1667.8706" x2="1587.6219" y2="2089.1077">
					<stop  offset="0" style="stop-color:#09005D"/>
					<stop  offset="1" style="stop-color:#1A0F91"/>
				</linearGradient>
				<path style="fill:url(#SVGID_00000016047211306814804050000002616027013675492754_);" d="M1756.987,1689.219
					c0,0,39.082,8.295,44.943,25.753c5.86,17.458-54.319,35.189-71.269,36.385l-12.004,71.285c0,0-41.99-65.805-26.886-104.735
					C1706.875,1678.975,1756.987,1689.219,1756.987,1689.219z"/>
				
					<linearGradient id="SVGID_00000060722534207529341030000005861148385568864421_" gradientUnits="userSpaceOnUse" x1="-15046.2168" y1="5589.0698" x2="-14882.501" y2="5777.3003" gradientTransform="matrix(-0.9534 0.3019 0.3019 0.9534 -14275.5928 932.4522)">
					<stop  offset="0" style="stop-color:#FEBBBA"/>
					<stop  offset="1" style="stop-color:#FF928E"/>
				</linearGradient>
				<path style="fill:url(#SVGID_00000060722534207529341030000005861148385568864421_);" d="M1738.663,1812.338
					c0,0-33.828-37.362-46.341-12.191c-12.514,25.169,30.663,42.83,45.172,30.276L1738.663,1812.338z"/>
				
					<linearGradient id="SVGID_00000161618105083347580400000011452682332362378662_" gradientUnits="userSpaceOnUse" x1="14567.4883" y1="3491.3923" x2="14958.1045" y2="2801.8699" gradientTransform="matrix(1 -0.0095 0.0095 1 -13093.5254 56.9446)">
					<stop  offset="0" style="stop-color:#FEBBBA"/>
					<stop  offset="1" style="stop-color:#FF928E"/>
				</linearGradient>
				<path style="fill:url(#SVGID_00000161618105083347580400000011452682332362378662_);" d="M1893.143,2625.535
					c-0.248,6.426,11.033,57.393,17.173,84.578c2.471,10.938,0.75,22.386-4.819,32.119l-212.63,357.867
					c-2.573,4.329-4.445,9.019-5.583,13.923c-3.897,16.795-11.979,57.952-7.76,95.395l11,22.846l-47.573-10.802l-10.35-127.754
					l13.468-8.213c11.634-7.094,20.694-17.698,25.881-30.3c19.226-46.702,66.972-165.585,79.279-223.523
					c13.986-65.846,87.108-119.328,87.108-119.328l-12.847-30.37L1893.143,2625.535z"/>
				
					<linearGradient id="SVGID_00000131359839448091428070000013952912553277881760_" gradientUnits="userSpaceOnUse" x1="17412.918" y1="-1479.7633" x2="17324.4668" y2="-1323.9191" gradientTransform="matrix(1 -0.0095 0.0095 1 -13093.5254 56.9446)">
					<stop  offset="0" style="stop-color:#09005D"/>
					<stop  offset="1" style="stop-color:#1A0F91"/>
				</linearGradient>
				<path style="fill:url(#SVGID_00000131359839448091428070000013952912553277881760_);" d="M1590.081,3177.499
					c0,0,25.69-40.729,28.713-56.582c3.022-15.855,11.436-43.85,27.275-35.423c0,0,7.463,77.015,4.891,107.109
					c-2.574,30.092,34.018,29.125,34.018,29.125s10.085,1.417,17.471,8.8c5.1,5.099,1.452,13.944-5.744,14.407
					c-11.974,0.773-30.993,0.975-50.965-2.884c-6.979-1.35-12.154-7.289-12.577-14.384l-5.271-88.639l-32.406,40.917
					L1590.081,3177.499z"/>
				
					<linearGradient id="SVGID_00000135688882557351775620000007889135940531485576_" gradientUnits="userSpaceOnUse" x1="14643.7881" y1="3098.4524" x2="14059.6074" y2="3285.2544" gradientTransform="matrix(1 -0.0095 0.0095 1 -13093.5254 56.9446)">
					<stop  offset="0" style="stop-color:#FEBBBA"/>
					<stop  offset="1" style="stop-color:#FF928E"/>
				</linearGradient>
				<path style="fill:url(#SVGID_00000135688882557351775620000007889135940531485576_);" d="M1766.12,2682.539
					c0,0-7.499,320.11-8.515,365.574c-1.015,45.463,7.179,146.215,52.755,176.332l-19.832,14.683c0,0-24.785-21.065-48.998-61.606
					c-27.2-45.543-35.425-53.865-35.425-53.865l9.026-18.483c3.952-8.092,5.113-17.248,3.293-26.067
					c-9.835-47.668-42.691-206.219-51.654-240.365c-10.58-40.305-11.333-94.129,25.475-139.184
					C1729.053,2654.503,1766.12,2682.539,1766.12,2682.539z"/>
				
					<linearGradient id="SVGID_00000047768472945677210820000012212789109464707503_" gradientUnits="userSpaceOnUse" x1="14758.498" y1="3268.2288" x2="14894.6094" y2="3268.2288" gradientTransform="matrix(1 -0.0095 0.0095 1 -13093.5254 56.9446)">
					<stop  offset="0" style="stop-color:#09005D"/>
					<stop  offset="1" style="stop-color:#1A0F91"/>
				</linearGradient>
				<path style="fill:url(#SVGID_00000047768472945677210820000012212789109464707503_);" d="M1724.034,3253.555
					c-1.415,0.013-2.616-0.999-2.816-2.399c-1.518-10.672-7.83-53.457-12.998-64.535c-5.919-12.688-25.25-66.09,0.011-70.623
					c0,0,62.803,91.754,74.858,104.125c12.056,12.372,27.271,4.322,27.271,4.322s11.747,3.47,20.604,14.791
					c4.216,5.387,0.289,13.297-6.552,13.362l-42.302,0.404c-12.284,0.117-23.334-7.347-27.902-18.753
					c-7.446-18.598-20.236-45.878-35.144-57.98l7.748,74.173C1726.983,3252.097,1725.696,3253.539,1724.034,3253.555z"/>
				
					<linearGradient id="SVGID_00000119083363534821947210000018288321256026516901_" gradientUnits="userSpaceOnUse" x1="14755.9629" y1="2822.5171" x2="14907.0469" y2="2384.3738" gradientTransform="matrix(1 -0.0095 0.0095 1 -13093.5254 56.9446)">
					<stop  offset="0" style="stop-color:#09005D"/>
					<stop  offset="1" style="stop-color:#1A0F91"/>
				</linearGradient>
				<path style="fill:url(#SVGID_00000119083363534821947210000018288321256026516901_);" d="M1818.659,2293.848
					c0,0-9.532,30.384,5.113,80.428l90.845,317.237c1.427,4.985-1.262,10.202-6.143,11.953
					c-27.173,9.753-116.502,37.319-238.443,28.913c-6.139-0.423-11.288-4.771-12.622-10.779
					c-8.034-36.166-35.45-159.561-41.095-184.915c-21.507-96.609-45.521-200.795,60.124-263.793
					C1725.127,2293.747,1770.538,2306.04,1818.659,2293.848z"/>
				
					<linearGradient id="SVGID_00000111150252114894510430000016308863590071925685_" gradientUnits="userSpaceOnUse" x1="1707.655" y1="1939.709" x2="1388.3311" y2="2422.0925">
					<stop  offset="0" style="stop-color:#4F52FF"/>
					<stop  offset="1" style="stop-color:#4042E2"/>
				</linearGradient>
				<path style="fill:url(#SVGID_00000111150252114894510430000016308863590071925685_);" d="M1524.977,2171.198
					c0,0-0.694,0.046-0.694-0.037c11.445-8.99,72.22-9.319,72.22-9.319s44.139-63.913,59.096-79.768
					c0.486-0.49,0.982-0.98,1.389-1.388c0.327-0.328,0.654-0.656,1.141-1.064c5.475-5.066,11.282-10.135,17.576-15.365
					c6.942-5.802,12.502-13.241,15.854-21.66c23.374-58.846,4.905-97.34-37.596-72.658c0,0-89.825,74.619-124.719,180.378
					c-0.407,1.31-0.735,2.535-1.15,3.762c-1.389,4.903-2.778,9.562-3.999,13.894c-0.088,0.328,0.267,0.793,0.187,1.119
					C1524.035,2169.827,1525.224,2170.462,1524.977,2171.198z"/>
			</g>
			
				<linearGradient id="SVGID_00000002386363191919525560000006236904536953274811_" gradientUnits="userSpaceOnUse" x1="4843.2192" y1="2223.2466" x2="5083.5781" y2="2223.2466" gradientTransform="matrix(1 0 0 1 -3037.2822 0)">
				<stop  offset="0" style="stop-color:#FEBBBA"/>
				<stop  offset="1" style="stop-color:#FF928E"/>
			</linearGradient>
			<path style="fill:url(#SVGID_00000002386363191919525560000006236904536953274811_);" d="M1747.126,2209.607
				c0,0-104.391,58.997-139.616,8.621c-7.313-10.461-12.807-46.475-11.006-56.386c-31.291-15.8-54.839,7.423-72.408,6.13
				c-4.609,24.147-6.847,47.654,7.343,73.612c61.7,112.866,229.503-6.238,229.503-6.238L1747.126,2209.607z"/>
			<g>
				
					<linearGradient id="SVGID_00000101081078196796496840000015268680103021388963_" gradientUnits="userSpaceOnUse" x1="2106.5369" y1="1727.1241" x2="1543.3827" y2="2684.488">
					<stop  offset="0" style="stop-color:#09005D"/>
					<stop  offset="1" style="stop-color:#1A0F91"/>
				</linearGradient>
				<path style="fill:url(#SVGID_00000101081078196796496840000015268680103021388963_);" d="M1734.583,2284.246l56.974-198.966
					c0.646-2.258,2.573-3.905,4.907-4.177c10.323-1.205,40.233-4.586,74.769-7.506c41.599-3.52,89.908-6.37,118.775-3.944
					c4.103,0.343,6.583,4.685,4.758,8.378c-16.416,33.209-83.94,168.307-117.755,212.563c-1.12,1.465-2.852,2.323-4.698,2.306
					l-132.188-1.23C1736.28,2291.634,1733.525,2287.944,1734.583,2284.246z"/>
				<path style="fill:#91B3FA;" d="M1877.143,2056.346l41.307-6.882c2.199-0.366,4.002,1.735,3.303,3.854l-4.09,12.39
					c-0.356,1.079-1.295,1.86-2.422,2.01l-39.75,5.31c-2.055,0.274-3.751-1.595-3.278-3.615l2.531-10.818
					C1875.016,2057.431,1875.962,2056.544,1877.143,2056.346z"/>
				<path style="fill:#91B3FA;" d="M1846.213,2091.316l3.404-17.725c0.341-1.777,1.809-3.121,3.61-3.304l83.43-8.466
					c2.808-0.285,5.057,2.288,4.398,5.032l-5.306,22.088c-0.423,1.767-1.962,3.044-3.777,3.134l-81.529,4.105
					C1847.79,2096.315,1845.713,2093.927,1846.213,2091.316z"/>
				
					<linearGradient id="SVGID_00000153686154485260787210000010596186072745887877_" gradientUnits="userSpaceOnUse" x1="4780.1348" y1="2202.4426" x2="4856.0386" y2="2202.4426" gradientTransform="matrix(1 0 0 1 -3037.2822 0)">
					<stop  offset="0" style="stop-color:#FEBBBA"/>
					<stop  offset="1" style="stop-color:#FF928E"/>
				</linearGradient>
				<path style="fill:url(#SVGID_00000153686154485260787210000010596186072745887877_);" d="M1748.349,2236.176
					c0,0-7.937-32.635-4.735-44.213c3.2-11.579,9.404-26.465,30.078-23.156c20.676,3.307,45.065,12.017,45.065,12.017
					s-1.232,15.081-16.946,10.216l9.745,7.539c0,0-1.393,12.075-14.666,5.625l9.064,9.999c0,0-5.701,9.917-15.466,3.557
					C1780.723,2211.398,1776.042,2240.105,1748.349,2236.176z"/>
			</g>
		</g>
	</g>
</g>
</svg>
